<?xml version="1.0" encoding="utf-8"?>
<!-- Generator: Adobe Illustrator 24.1.3, SVG Export Plug-In . SVG Version: 6.00 Build 0)  -->
<svg version="1.1" xmlns="http://www.w3.org/2000/svg" xmlns:xlink="http://www.w3.org/1999/xlink" x="0px" y="0px"
	 viewBox="0 0 300 200" style="enable-background:new 0 0 300 200;" xml:space="preserve">
<style type="text/css">
	.st0{fill:#CF9E76;}
	.st1{fill:#DFB38B;}
	.st2{fill:#FDD870;}
	.st3{fill:#ED6E55;}
	.st4{fill:#B27946;}
	.st5{fill:#020203;}
	.st6{stroke:#F39200;stroke-miterlimit:10;}
	.st7{font-family: 'Oswald', sans-serif;
		 font-weight: bold;}
	.st8{font-size:44.1223px;}
	.st9{font-size:35.7418px;}
</style>
<g id="Слой_1">
</g>
<g id="pizza-logo">
	<g>
		<g>
			<path class="st0" d="M123.2,86.8c-3.6-19.2-18.3-33.9-37.5-37.5c-0.4-0.1-0.7-0.1-1.1-0.2c-1.8-0.3-3.5,1.2-3.5,3v39.2h39.2
				c1.9,0,3.3-1.6,3-3.5C123.3,87.5,123.3,87.2,123.2,86.8z"/>
			<path class="st0" d="M71.7,54.9c-23,1.7-40.8,21.6-39.4,45.3c1.3,21.3,18.6,38.6,39.9,39.9c23.7,1.5,43.6-16.4,45.3-39.4
				c0.1-1.8-1.3-3.3-3.1-3.3H75V57.9C75,56.2,73.5,54.7,71.7,54.9z"/>
			<path class="st1" d="M75,59.3c-21.1,0-38.2,17.1-38.2,38.2s17.1,38.2,38.2,38.2s38.2-17.1,38.2-38.2H75V59.3z"/>
			<path class="st1" d="M81.1,53.2v38.2h38.2C119.3,71.1,101.4,53.2,81.1,53.2z"/>
			<path class="st2" d="M114.6,91.4c-1.3-15.2-11.8-27.8-26-32l-2.8-0.7c-1.5-0.3-3-0.5-4.6-0.7v33.4H114.6z"/>
			<path class="st2" d="M75,97.5V63.9c-18.5,0-33.6,15-33.6,33.6s15,33.6,33.6,33.6s33.6-15,33.6-33.6H75z"/>
			<circle class="st3" cx="64.3" cy="120.4" r="3.1"/>
			<circle class="st4" cx="90.3" cy="82.2" r="3.1"/>
			<circle class="st3" cx="102.5" cy="71.5" r="3.1"/>
			<circle class="st4" cx="68.9" cy="100.5" r="3.1"/>
			<circle class="st4" cx="96.4" cy="109.7" r="3.1"/>
			<circle class="st3" cx="53.7" cy="97.5" r="3.1"/>
		</g>
		<g>
			<path class="st5" d="M114.6,96h-38v-38c0-1.3-0.5-2.5-1.5-3.4c-0.9-0.9-2.2-1.3-3.4-1.2c-24,1.8-42.3,22.9-40.8,47
				c1.4,22.2,19.2,40,41.4,41.4c0.9,0.1,1.8,0.1,2.8,0.1c22.9,0,42.5-17.8,44.2-40.9c0.1-1.3-0.3-2.5-1.2-3.4
				C117.1,96.5,115.8,96,114.6,96z M72.4,138.6c-20.7-1.3-37.2-17.8-38.5-38.5c-1.4-22.4,15.6-42,38-43.7c0.4,0,0.8,0.1,1.1,0.4
				c0.3,0.3,0.5,0.7,0.5,1.1v4.5c-18.6,0.8-33.6,16.2-33.6,35.1c0,19.4,15.7,35.1,35.1,35.1c16.4,0,30.5-11.2,34.2-27.1l-3-0.7
				c-3.4,14.6-16.2,24.8-31.2,24.8c-17.7,0-32-14.4-32-32c0-4.7,1.1-9.2,2.9-13.2c0.2,0.2,0.4,0.3,0.6,0.6c0.8,0.8,2,2,4.1,2
				c2.2,0,3.3-1.1,4.1-2c0.7-0.7,1.1-1.1,2-1.1v-3.1c-2.2,0-3.3,1.1-4.1,2c-0.7,0.7-1.1,1.1-2,1.1c-0.9,0-1.2-0.3-2-1.1
				c-0.4-0.4-0.8-0.8-1.4-1.2c5.3-9.2,15-15.5,26.2-16V99H107c0,1-0.1,1.9-0.2,2.8l3,0.4c0.1-1.1,0.2-2.2,0.3-3.3h4.5
				c0.4,0,0.8,0.2,1.1,0.5c0.3,0.3,0.4,0.7,0.4,1.1C114.4,123,94.8,140,72.4,138.6z"/>
			<path class="st5" d="M64.3,115.8c-2.5,0-4.6,2.1-4.6,4.6s2.1,4.6,4.6,4.6s4.6-2.1,4.6-4.6S66.9,115.8,64.3,115.8z M64.3,121.9
				c-0.8,0-1.5-0.7-1.5-1.5s0.7-1.5,1.5-1.5c0.8,0,1.5,0.7,1.5,1.5S65.2,121.9,64.3,121.9z"/>
			<path class="st5" d="M85.7,82.2c0,2.5,2.1,4.6,4.6,4.6s4.6-2.1,4.6-4.6c0-2.5-2.1-4.6-4.6-4.6S85.7,79.7,85.7,82.2z M91.8,82.2
				c0,0.8-0.7,1.5-1.5,1.5s-1.5-0.7-1.5-1.5c0-0.8,0.7-1.5,1.5-1.5S91.8,81.4,91.8,82.2z"/>
			<path class="st5" d="M68.9,96c-2.5,0-4.6,2.1-4.6,4.6c0,2.5,2.1,4.6,4.6,4.6s4.6-2.1,4.6-4.6C73.5,98,71.4,96,68.9,96z
				 M68.9,102.1c-0.8,0-1.5-0.7-1.5-1.5s0.7-1.5,1.5-1.5c0.8,0,1.5,0.7,1.5,1.5S69.8,102.1,68.9,102.1z"/>
			<path class="st5" d="M96.4,105.1c-2.5,0-4.6,2.1-4.6,4.6c0,2.5,2.1,4.6,4.6,4.6s4.6-2.1,4.6-4.6C101,107.2,98.9,105.1,96.4,105.1
				z M96.4,111.2c-0.8,0-1.5-0.7-1.5-1.5s0.7-1.5,1.5-1.5s1.5,0.7,1.5,1.5S97.2,111.2,96.4,111.2z"/>
			<path class="st5" d="M53.7,92.9c-2.5,0-4.6,2.1-4.6,4.6s2.1,4.6,4.6,4.6s4.6-2.1,4.6-4.6S56.2,92.9,53.7,92.9z M53.7,99
				c-0.8,0-1.5-0.7-1.5-1.5s0.7-1.5,1.5-1.5c0.8,0,1.5,0.7,1.5,1.5S54.5,99,53.7,99z"/>
			<path class="st5" d="M82.6,121.9c-0.9,0-1.2-0.3-2-1.1c-0.8-0.8-2-2-4.1-2v3.1c0.9,0,1.2,0.3,2,1.1c0.8,0.8,2,2,4.1,2
				s3.3-1.1,4.1-2c0.7-0.7,1.1-1.1,2-1.1v-3.1c-2.2,0-3.3,1.1-4.1,2C83.9,121.6,83.5,121.9,82.6,121.9z"/>
			<path class="st5" d="M124.9,87.7c-0.1-0.4-0.1-0.8-0.2-1.1l0,0c-3.7-19.8-18.9-35-38.7-38.7c-0.4-0.1-0.8-0.1-1.1-0.2
				c-1.3-0.2-2.6,0.2-3.6,1.1c-1,0.9-1.6,2.1-1.6,3.5v40.7h40.7c1.3,0,2.6-0.6,3.5-1.6C124.7,90.3,125.1,89,124.9,87.7z M121.5,89.3
				c-0.3,0.3-0.7,0.5-1.2,0.5h-4.4c-1.8-14.9-12.5-27.7-27-32l-0.9,2.9c4.6,1.4,8.8,3.7,12.4,6.7c-1.5,0.8-2.5,2.3-2.5,4.1
				c0,2.5,2.1,4.6,4.6,4.6c1.7,0,3.1-0.9,3.9-2.3c3.4,4.7,5.6,10.1,6.4,16H82.6V72.2c0.1,0.1,0.3,0.3,0.4,0.4c0.8,0.8,2,2,4.1,2
				s3.3-1.1,4.1-2c0.7-0.7,1.1-1.1,2-1.1v-3.1c-2.2,0-3.3,1.1-4.1,2c-0.7,0.7-1.1,1.1-2,1.1s-1.2-0.3-2-1.1
				c-0.6-0.6-1.4-1.4-2.6-1.8v-9.1c0.9,0.1,1.8,0.3,2.7,0.5l0.6-3c-1.1-0.2-2.2-0.4-3.4-0.5v-4.4c0-0.5,0.2-0.9,0.5-1.2
				c0.3-0.3,0.8-0.4,1.2-0.4c0.4,0,0.7,0.1,1,0.2c18.6,3.5,32.8,17.7,36.3,36.3c0.1,0.3,0.1,0.7,0.2,1
				C121.9,88.5,121.8,89,121.5,89.3z M102.5,70c0.8,0,1.5,0.7,1.5,1.5c0,0.8-0.7,1.5-1.5,1.5s-1.5-0.7-1.5-1.5
				C101,70.7,101.6,70,102.5,70z"/>
			<rect x="104" y="80.7" class="st5" width="3.1" height="3.1"/>
			<rect x="97.9" y="83.7" class="st5" width="3.1" height="3.1"/>
			<rect x="85.7" y="103.6" class="st5" width="3.1" height="3.1"/>
			<rect x="76.5" y="108.2" class="st5" width="3.1" height="3.1"/>
			<rect x="58.2" y="105.1" class="st5" width="3.1" height="3.1"/>
			<rect x="67.4" y="73.1" class="st5" width="3.1" height="3.1"/>
			<rect x="62.8" y="83.7" class="st5" width="3.1" height="3.1"/>
			<rect x="50.6" y="109.7" class="st5" width="3.1" height="3.1"/>
		</g>
	</g>
</g>
<g id="pizza-text-1">
	<text transform="matrix(1 0 0 1 127.6033 100)" class="st6 st7 st8">Pizza</text>
</g>
<g id="pizza-text-2">
	<text transform="matrix(1 0 0 1 179.6165 129.9501)" class="st6 st7 st9">Time</text>
</g>
<g id="Слой_5">
</g>
</svg>
